# xmcd
# 
# Track frame offsets:
#     150
#     14205
#     24966
#     38805
#     53184
#     65592
#     77622
#     91083
#     104301
#     116331
#     127281
#     139419
#     150693
#     165342
#     178290
#     190482
#     205347
#     215865
# 
# Disc length: 3040
# 
# Revision: 0
# Processed by: cddbd v1.5.2PL0 Copyright (c) Steve Scherf et al.
# Submitted via: fre:ac v1.0.31
# 
DISCID=080bde12
DTITLE=Various Artist - MAMBO !
DYEAR=1994
DGENRE=Swing
TTITLE0=Plage01 - Plage01
TTITLE1=Plage02 - Plage02
TTITLE2=Plage03 - Plage03
TTITLE3=Plage04 - Plage04
TTITLE4=Plage05 - Plage05
TTITLE5=Plage06 - Plage06
TTITLE6=Plage07 - Plage07
TTITLE7=Plage08 - Plage08
TTITLE8=Plage09 - Plage09
TTITLE9=Plage10 - Plage10
TTITLE10=Plage11 - Plage11
TTITLE11=Plage12 - Plage12
TTITLE12=Plage13 - Plage13
TTITLE13=Plage14 - Plage14
TTITLE14=Plage15 - Plage15
TTITLE15=Plage16 - Plage16
TTITLE16=Plage17 - Plage17
TTITLE17=Plage18 - Plage18
EXTD=
EXTT0=
EXTT1=
EXTT2=
EXTT3=
EXTT4=
EXTT5=
EXTT6=
EXTT7=
EXTT8=
EXTT9=
EXTT10=
EXTT11=
EXTT12=
EXTT13=
EXTT14=
EXTT15=
EXTT16=
EXTT17=
PLAYORDER=
